<svg xmlns="http://www.w3.org/2000/svg" viewBox="0 0 1920 249">
  <defs>
    <style>
      .cls-1 {
        fill: rgba(255,255,255,0);
      }

      .cls-2 {
        fill: #5e7ef0;
      }
    </style>
  </defs>
  <g id="Group_1" data-name="Group 1" transform="translate(0 -395)">
    <rect id="Rectangle_1" data-name="Rectangle 1" class="cls-1" width="1920" height="249" transform="translate(0 395)"/>
    <circle id="Ellipse_1" data-name="Ellipse 1" class="cls-2" cx="20" cy="20" r="20" transform="translate(111 424)"/>
    <circle id="Ellipse_2" data-name="Ellipse 2" class="cls-2" cx="20" cy="20" r="20" transform="translate(236 444)"/>
    <circle id="Ellipse_3" data-name="Ellipse 3" class="cls-2" cx="20" cy="20" r="20" transform="translate(361 464)"/>
    <circle id="Ellipse_4" data-name="Ellipse 4" class="cls-2" cx="20" cy="20" r="20" transform="translate(486 480)"/>
    <circle id="Ellipse_5" data-name="Ellipse 5" class="cls-2" cx="20" cy="20" r="20" transform="translate(611 480)"/>
    <circle id="Ellipse_6" data-name="Ellipse 6" class="cls-2" cx="20" cy="20" r="20" transform="translate(736 480)"/>
    <circle id="Ellipse_7" data-name="Ellipse 7" class="cls-2" cx="20" cy="20" r="20" transform="translate(861 480)"/>
    <circle id="Ellipse_8" data-name="Ellipse 8" class="cls-2" cx="20" cy="20" r="20" transform="translate(986 480)"/>
    <circle id="Ellipse_9" data-name="Ellipse 9" class="cls-2" cx="20" cy="20" r="20" transform="translate(1111 480)"/>
    <circle id="Ellipse_10" data-name="Ellipse 10" class="cls-2" cx="20" cy="20" r="20" transform="translate(1236 480)"/>
    <circle id="Ellipse_11" data-name="Ellipse 11" class="cls-2" cx="20" cy="20" r="20" transform="translate(1361 480)"/>
    <circle id="Ellipse_12" data-name="Ellipse 12" class="cls-2" cx="20" cy="20" r="20" transform="translate(1486 480)"/>
    <circle id="Ellipse_13" data-name="Ellipse 13" class="cls-2" cx="20" cy="20" r="20" transform="translate(1611 500)"/>
    <circle id="Ellipse_14" data-name="Ellipse 14" class="cls-2" cx="20" cy="20" r="20" transform="translate(1736 520)"/>
  </g>
</svg>
